<svg xmlns="http://www.w3.org/2000/svg" viewBox="0 0 112.86 45.503">
  <path
          d="M462.72 806.68c-2.419-1.563-3.647-2.877-2.846-3.045.807-.17 1.392-1.452 1.368-3-.053-3.396.548-5.501 1.834-6.419.55-.392 1.056-1.18 1.125-1.75.068-.57.18-1.271.25-1.559.068-.288 1.362.252 2.875 1.2l2.75 1.722-2.32-2.589c-1.276-1.423-3.526-2.858-5-3.187-3.491-.78-8.183-4.737-6.37-5.372 1.029-.36.967-.84-.285-2.223-.879-.97-1.775-3.287-1.992-5.147-.753-6.443-1.575-7.798-5.136-8.466-4.075-.765-6.222-.064-7.09 2.312-.357.975-1.69 2.841-2.965 4.147s-3.785 5.285-5.58 8.844c-2.449 4.858-4.169 6.937-6.898 8.339-2 1.027-5.044 3.782-6.766 6.123-3.375 4.59-8.903 7.872-13.027 7.734l-2.57-.086 2.708-.816c4.234-1.277 8.51-4.743 11.865-9.619 2.108-3.064 4.01-4.66 6.037-5.065 2.994-.599 6.744-5.644 8.418-11.328.405-1.375 2.215-4.148 4.022-6.162s3.788-4.603 4.404-5.754c1.006-1.878 1.706-2.027 6.833-1.452 3.142.352 6.231 1.048 6.866 1.546.634.499 2.355 3.362 3.823 6.364 1.469 3.002 3.055 5.458 3.524 5.458.47 0 1.777-1.238 2.905-2.75 4.197-5.629 4.947-6.073 8.792-5.205 1.977.445 3.867 1.225 4.199 1.733 1.016 1.553 4.84 3.222 7.383 3.222 2.821 0 5.192 2.407 6.087 6.18.35 1.474 1.326 3.37 2.168 4.212 1.434 1.434 7.504 3.59 10.142 3.602.648.003 2.14 1.243 3.316 2.756s3.796 3.546 5.822 4.518c2.65 1.272 2.982 1.637 1.185 1.3l-2.5-.467 2.806 2.45c4.143 3.616 1.682 2.974-4.259-1.113-2.848-1.959-5.648-3.404-6.223-3.213-.575.192.812 1.637 3.083 3.21 2.271 1.574 3.935 3.057 3.697 3.294-.618.619-4.714-1.624-7.35-4.025-1.235-1.125-2.585-1.707-2.998-1.293-.7.7.038 1.417 5.244 5.085 1.824 1.285 1.604 1.376-2.5 1.036-4.954-.41-10.763-2.943-9.103-3.969.576-.355 2.254.145 3.73 1.112 2.135 1.4 2.586 1.459 2.204.292-.265-.807-1.834-1.917-3.487-2.467s-5.67-3.016-8.925-5.479c-5.972-4.52-12.477-8.296-13.143-7.63-.199.199 1.29 1.335 3.308 2.526 4.439 2.619 3.949 3.75-.771 1.778-4.424-1.849-7.11-5.694-5.215-7.464 1.07-1 1.98-.85 4.617.758 1.807 1.102 3.735 1.99 4.285 1.976s-.8-1.135-3-2.49c-2.2-1.353-4.025-3.252-4.056-4.218-.031-.967-.643-2.833-1.36-4.147l-1.304-2.39-1.933 3.053c-2.819 4.452-6.376 6.549-8.857 5.221-1.32-.706-1.99-.722-1.99-.046 0 .56 2.363 2.215 5.25 3.677s6.6 3.675 8.25 4.917c5.44 4.094 10.55 6.482 12.794 5.98 1.518-.34 3.298.479 5.706 2.626 1.925 1.716 2.712 2.848 1.75 2.517-.963-.331-1.75-.167-1.75.366s.474.969 1.053.969c.58 0 2.709 1.125 4.732 2.5 2.324 1.58 3.052 2.5 1.977 2.5-1.923 0-6.23-2.3-15.084-8.052-3.341-2.172-6.577-3.948-7.19-3.948-.612 0-2.4-1.342-3.97-2.982-2.719-2.838-11.019-6.85-12.046-5.823-.266.266 1.207 1.343 3.273 2.394s5.539 3.386 7.718 5.189 6.316 4.391 9.193 5.752c5.152 2.437 7.566 4.47 5.308 4.47-.634 0-3.614-1.35-6.62-3s-5.776-2.99-6.155-2.978c-.897.03 4.081 3.926 5.053 3.956.408.012 2.805 1.597 5.327 3.522 5.327 4.066 4.756 4.519-1.318 1.046-4.406-2.52-5.937-1.841-2.028.897 1.827 1.28 1.916 1.557.5 1.557-.947 0-1.722.502-1.722 1.116 0 .614-.836.898-1.858.631s-2.659-.038-3.638.51c-1.367.765-1.593.695-.978-.3.587-.95.32-1.113-.99-.61-2.064.793-4.631-.934-3.968-2.67.277-.727-.772-1.263-2.74-1.401l-3.19-.224 3.43 2.933c4.334 3.705 3.564 3.81-1.924.265zm26.356-10.25c-.34-.55-1.154-.993-1.809-.985-.716.01-.592.403.309.985 1.921 1.242 2.267 1.242 1.5 0zm7.5-5.99c-7.775-5.983-7.454-5.82-8.745-4.438-1.596 1.709-.659 4.09 1.871 4.75 1.641.43 1.779.268.789-.925-2.167-2.61-.185-2.577 2.433.042 1.409 1.409 3.369 2.546 4.357 2.528 1.493-.028 1.374-.357-.705-1.957zm8 .49c-.685-.825-1.695-1.5-2.245-1.5-.558 0-.45.663.245 1.5.685.825 1.695 1.5 2.245 1.5.558 0 .45-.663-.245-1.5zm-17-7.522c0-1.089-8.736-6.978-10.351-6.978-.528 0-.145.9.85 2s2.366 2 3.045 2c.679 0 2.297.885 3.595 1.967 2.776 2.313 2.86 2.342 2.86 1.01zm-3-5.978c0-.55-.477-1-1.059-1s-.78.45-.441 1 .816 1 1.059 1 .441-.45.441-1zm-27.128 29.336c-1.244-1.509-1.163-1.552.878-.465 2.327 1.24 2.9 2.129 1.372 2.129-.483 0-1.495-.749-2.25-1.664zm32.701-1.858c-2.992-2.263-1.354-2.632 1.968-.442 1.627 1.073 2.284 1.94 1.459 1.925s-2.367-.681-3.427-1.483zm-35.073-17.479c-.782-1.265.542-1.265 2.5 0 1.293.836 1.266.972-.191.985-.93.008-1.97-.435-2.309-.985z"
          transform="translate(-404.07 -763.77)"
  ></path>
</svg>